# xmcd
#
# Track frame offsets:
#	150
#	15418
#	32294
#	52764
#	83484
#	97924
#	116329
#	143547
#
# Disc length: 2110 seconds
#
# Revision: 0
# Processed by: cddbd v1.5.2PL0 Copyright (c) Steve Scherf et al.
# Submitted via: SynApp - FreeCDDB Version: 2.3
#
DISCID=43083c08
DTITLE=Schorsch and de Bagasch - Sekänd Händ Blues
DYEAR=0
DGENRE=Blues
TTITLE0=Fesche Mama
TTITLE1=Dia gez guad
TTITLE2=Sekänd Händ Blues
TTITLE3=Selbe oide G'schicht
TTITLE4=Pantsching Boi
TTITLE5=Drommen von Afrika
TTITLE6=Wudu-Mond
TTITLE7=G'made Wies'n
EXTD=
EXTT0=
EXTT1=
EXTT2=
EXTT3=
EXTT4=
EXTT5=
EXTT6=
EXTT7=
PLAYORDER=
